<svg id="_x33_0" enable-background="new 0 0 64 64" height="512" viewBox="0 0 64 64" width="512" xmlns="http://www.w3.org/2000/svg"><g><g><g><path d="m33 38 2.1 7.35v.01c-.38.19-.75.4-1.1.64-.4-.27-.82-.51-4.76-1.85v-.01l1.76-6.14z" fill="#ffeaa7"/></g><g><path d="m34.5 35-1.5 3h-2l-1.5-3 2.5-2z" fill="#fcd770"/></g><g><path d="m43.68 15.28-.43 1.73-.01.01c-.54-.63-1.34-1.02-2.24-1.02h-1v-.47c0-2.02-1.5-3.72-3.5-3.97l-.53-.06c-1.16-.15-2.18-.72-2.89-1.56l-.08.06h-4.47-.53c-2.21 0-4 1.79-4 4v2h-1c-.9 0-1.7.39-2.24 1.02l-.01-.01-.43-1.73c-.21-.85-.32-1.72-.32-2.6 0-2.95 1.2-5.62 3.13-7.55s4.6-3.13 7.55-3.13h2.64c5.9 0 10.68 4.78 10.68 10.68 0 .88-.11 1.75-.32 2.6z" fill="#b27946"/></g><g><path d="m50.51 44.94 1.49-8.94h6v17.87c0 1.69-.68 3.23-1.79 4.34s-2.65 1.79-4.34 1.79c-1.82 0-3.54-.81-4.71-2.21l-3.16-3.79v-10h-3.39c-1.93 0-3.82.47-5.51 1.36v-.01l-2.1-7.35 1.5-3 2.5 2 2.06-5.16c5.31 1.97 9.46 6.34 11.09 11.89z" fill="#e6e9ed"/></g><g><path d="m24 56h4v6h-4c-5.52 0-10-4.48-10-10v-4.86c0-7.03 4.48-13.13 10.9-15.38l2.1 5.24 2.5-2 1.5 3-1.76 6.14v.01c-.61-.1-1.23-.15-1.85-.15h-3.39z" fill="#e6e9ed"/></g><g><path d="m39.06 31.84-2.06 5.16-2.5-2-2.5-2 4-2c1.05.19 2.08.48 3.06.84z" fill="#ccd1d9"/></g><g><path d="m32 33-2.5 2-2.5 2-2.1-5.24c.99-.35 2.03-.61 3.1-.76z" fill="#ccd1d9"/></g><g><path d="m44 54v4h-3.39c-1.59 0-3.16.32-4.61.93-.02-.8-.36-1.53-.88-2.05-.31-.31-.69-.56-1.12-.7v-.01-10.17c.35-.24.72-.45 1.1-.64 1.69-.89 3.58-1.36 5.51-1.36h3.39z" fill="#b4dd7f"/></g><g><path d="m34 46v10.17.01c-.31-.12-.65-.18-1-.18h-1v-.15c0-1.02-.83-1.85-1.85-1.85-.71 0-1.35.4-1.66 1.02l-.49.98h-4v-12h3.39c.62 0 1.24.05 1.85.15 3.94 1.34 4.36 1.58 4.76 1.85z" fill="#b4dd7f"/></g><g><path d="m36 58.93v.07c0 1.66-1.34 3-3 3h-5v-6l.49-.98c.31-.62.95-1.02 1.66-1.02 1.02 0 1.85.83 1.85 1.85v.15h1c.35 0 .69.06 1 .18.43.14.81.39 1.12.7.52.52.86 1.25.88 2.05z" fill="#f0d0b4"/></g><g><path d="m60 32v.34c0 1.06-.42 2.08-1.17 2.83l-.83.83h-6l-.83-.83c-.75-.75-1.17-1.77-1.17-2.83v-2.34c0-.55.22-1.05.59-1.41.36-.37.86-.59 1.41-.59 1.1 0 2 .9 2 2 0 .55.22 1.05.59 1.41.36.37.86.59 1.41.59z" fill="#f0d0b4"/></g><g><path d="m58 28c1.1 0 2 .9 2 2v2h-4c-.55 0-1.05-.22-1.41-.59-.37-.36-.59-.86-.59-1.41 0-1.1.9-2 2-2z" fill="#f0d0b4"/></g><g><path d="m56 28c-1.1 0-2 .9-2 2 0-1.1-.9-2-2-2v-4c0-1.1.9-2 2-2 .55 0 1.05.22 1.41.59.37.36.59.86.59 1.41z" fill="#f0d0b4"/></g><g><path d="m41 16c.9 0 1.7.39 2.24 1.02.47.53.76 1.22.76 1.98 0 .83-.34 1.58-.88 2.12s-1.29.88-2.12.88h-1v-5-1z" fill="#f0d0b4"/></g><g><path d="m35.22 27.88.78 3.12-4 2-4-2 .78-3.12c.39.08.8.12 1.22.12h4c.42 0 .83-.04 1.22-.12z" fill="#f0d0b4"/></g><g><path d="m24 17v5h-1c-.83 0-1.58-.34-2.12-.88s-.88-1.29-.88-2.12c0-.76.29-1.45.76-1.98.54-.63 1.34-1.02 2.24-1.02h1z" fill="#f0d0b4"/></g><g><path d="m36.5 11.56-.53-.06c-1.16-.15-2.18-.72-2.89-1.56l-.08.06h-4.47-.53c-2.21 0-4 1.79-4 4v8c0 2.89 2.05 5.31 4.78 5.88.39.08.8.12 1.22.12h4c.42 0 .83-.04 1.22-.12 2.73-.57 4.78-2.99 4.78-5.88v-6.47c0-2.02-1.5-3.72-3.5-3.97z" fill="#f0d0b4"/></g><g><circle cx="37" cy="17" fill="#69d6f4" r="3"/></g><g><circle cx="27" cy="17" fill="#69d6f4" r="3"/></g></g><g><path d="m29 23h6v2h-6z"/><path d="m58 27h-1v-3c0-1.654-1.346-3-3-3s-3 1.346-3 3v3.184c-1.161.414-2 1.514-2 2.816v2.343c0 1.336.521 2.592 1.465 3.536l.464.464-.76 4.559c-2.482-5.475-7.382-9.452-13.349-10.746l-.4-1.597c2.367-.876 4.13-2.993 4.5-5.56h.08c2.206 0 4-1.794 4-4 0-.816-.248-1.573-.668-2.206l.319-1.275c.232-.927.35-1.88.35-2.834-.001-6.443-5.242-11.684-11.686-11.684h-2.631c-6.443 0-11.684 5.241-11.684 11.685 0 .954.117 1.907.35 2.834l.319 1.276c-.421.632-.669 1.39-.669 2.205 0 2.206 1.794 4 4 4h.08c.37 2.567 2.133 4.683 4.5 5.56l-.395 1.578c-8.13 1.497-14.185 8.677-14.185 17.005v4.857c0 6.065 4.935 11 11 11h9c1.984 0 3.622-1.454 3.934-3.35 1.18-.423 2.411-.65 3.671-.65h4.395v-2.237l1.394 1.672c1.359 1.63 3.355 2.565 5.477 2.565 3.931 0 7.129-3.198 7.129-7.129v-17.457l.535-.535c.944-.944 1.465-2.2 1.465-3.536v-2.343c0-1.654-1.346-3-3-3zm-4-4c.552 0 1 .448 1 1v3.184c-.374.133-.711.336-1 .596-.289-.261-.626-.463-1-.596v-3.184c0-.552.448-1 1-1zm-21.131 32c-.363-1.158-1.447-2-2.724-2-1.088 0-2.065.604-2.553 1.578l-.21.422h-2.382v-10h2.395c1.985 0 3.911.541 5.605 1.558v8.442zm-2.715-21.805-2.727 2.181-1.189-2.973c.528-.146 1.065-.269 1.615-.359zm1.601 5.805h.491l1.645 5.758c-1.064-.621-2.204-1.079-3.389-1.373zm.627-2h-.764l-.862-1.724 1.244-.995 1.244.995zm1.464-3.805 2.288-1.144c.546.11 1.081.246 1.607.404l-1.169 2.921zm5.154-16.195c0 1.103-.897 2-2 2s-2-.897-2-2 .897-2 2-2 2 .897 2 2zm2 4v-4c1.103 0 2 .897 2 2s-.897 2-2 2zm-10.315-18h2.631c5.339 0 9.684 4.345 9.684 9.685 0 .79-.098 1.581-.289 2.35l-.08.321c-.5-.225-1.049-.356-1.631-.356h-.049c-.245-2.277-2.013-4.141-4.33-4.43l-.528-.066c-1.764-.221-3.093-1.727-3.093-3.504h-2c0 2.784 2.083 5.144 4.844 5.488l.528.066c.491.062.936.249 1.322.515-.227-.039-.456-.069-.694-.069-1.859 0-3.411 1.279-3.858 3h-2.284c-.447-1.721-1.999-3-3.858-3-.713 0-1.372.203-1.953.53.222-1.397 1.403-2.47 2.85-2.52.592 1.12 1.458 2.095 2.548 2.822l1.109-1.664c-1.599-1.066-2.554-2.851-2.554-4.773v-.395h-2v.395c0 .575.073 1.138.195 1.687-2.373.387-4.195 2.437-4.195 4.918v1c-.582 0-1.131.131-1.631.356l-.08-.321c-.191-.769-.289-1.56-.289-2.35 0-5.34 4.345-9.685 9.685-9.685zm-3.685 12c1.103 0 2 .897 2 2s-.897 2-2 2-2-.897-2-2 .897-2 2-2zm-6 4c0-1.103.897-2 2-2v4c-1.103 0-2-.897-2-2zm4 3v-1.556c.591.344 1.268.556 2 .556 1.859 0 3.411-1.279 3.858-3h2.284c.447 1.721 1.999 3 3.858 3 .732 0 1.409-.212 2-.556v1.556c0 2.757-2.243 5-5 5h-4c-2.757 0-5-2.243-5-5zm5 7h4c.156 0 .31-.013.463-.023l.372 1.487-2.835 1.418-2.835-1.418.372-1.487c.153.01.307.023.463.023zm-15 23v-4.857c0-6.223 3.823-11.726 9.347-14.083l2.226 5.564 2.587-2.069.773 1.545-1.416 4.955c-.373-.033-.746-.055-1.122-.055h-4.395v11.816c-1.161-.414-2-1.514-2-2.816v-11h-2v11c0 2.757 2.243 5 5 5h3v4h-3c-4.963 0-9-4.037-9-9zm18 9h-4v-4.764l.382-.764c.145-.291.438-.472.764-.472.47 0 .854.384.854.854v1.146h2c1.103 0 2 .897 2 2s-.897 2-2 2zm10-4h-2.395c-1.324 0-2.621.203-3.872.598-.326-.866-.943-1.581-1.733-2.042v-8.998c1.695-1.017 3.62-1.558 5.605-1.558h2.395zm8.871 2c-1.526 0-2.963-.673-3.94-1.846l-2.931-3.517v-10.637h-4.395c-1.682 0-3.328.33-4.864.956l-1.673-5.857.773-1.545 2.587 2.069 2.192-5.479c4.591 1.994 8.118 5.909 9.575 10.864l.291.989-1.473 8.839 1.973.328 2.861-17.164h4.153v16.871c0 2.828-2.301 5.129-5.129 5.129zm6.25-24.535-.535.535h-5.172l-.535-.535c-.566-.567-.879-1.32-.879-2.122v-2.343c0-.552.448-1 1-1s1 .448 1 1c0 1.654 1.346 3 3 3h2.929c-.123.551-.4 1.057-.808 1.465zm.879-3.465h-3c-.552 0-1-.448-1-1s.448-1 1-1h2c.552 0 1 .448 1 1z"/></g></g></svg>